<?xml version="1.0" encoding="UTF-8"?>
<svg id="_Слой_2" data-name="Слой 2" xmlns="http://www.w3.org/2000/svg" viewBox="0 0 21 18">
  <defs>
    <style>
      .cls-1 {
        fill: #333;
        fill-rule: evenodd;
        stroke-width: 0px;
      }
    </style>
  </defs>
  <g id="_Слой_7" data-name="Слой 7">
    <path class="cls-1" d="m18,18c.8,0,1.56-.32,2.12-.88.56-.56.88-1.33.88-2.12V6c0-.8-.32-1.56-.88-2.12-.56-.56-1.33-.88-2.12-.88h-5.38c-.2,0-.39-.08-.53-.22l-2.12-2.12c-.21-.21-.46-.38-.73-.49-.27-.11-.57-.17-.86-.17H3c-.8,0-1.56.32-2.12.88-.56.56-.88,1.33-.88,2.12v12c0,.8.32,1.56.88,2.12.56.56,1.33.88,2.12.88h15Zm-6.75-10.5c0-.2-.08-.39-.22-.53-.14-.14-.33-.22-.53-.22s-.39.08-.53.22c-.14.14-.22.33-.22.53v2.25h-2.25c-.2,0-.39.08-.53.22-.14.14-.22.33-.22.53s.08.39.22.53c.14.14.33.22.53.22h2.25v2.25c0,.2.08.39.22.53.14.14.33.22.53.22s.39-.08.53-.22c.14-.14.22-.33.22-.53v-2.25h2.25c.2,0,.39-.08.53-.22.14-.14.22-.33.22-.53s-.08-.39-.22-.53c-.14-.14-.33-.22-.53-.22h-2.25v-2.25Z"/>
  </g>
</svg>