<?xml version="1.0" encoding="UTF-8"?>
<svg id="_Слой_2" data-name="Слой 2" xmlns="http://www.w3.org/2000/svg" viewBox="0 0 21.5 21.5">
  <defs>
    <style>
      .cls-1 {
        fill: #333;
        fill-rule: evenodd;
        stroke-width: 0px;
      }
    </style>
  </defs>
  <g id="_Слой_7" data-name="Слой 7">
    <path class="cls-1" d="m0,10.75c0,5.94,4.81,10.75,10.75,10.75s10.75-4.81,10.75-10.75S16.69,0,10.75,0,0,4.81,0,10.75Zm7.04-3.71c.39-.39,1.02-.39,1.41,0l2.29,2.29,2.29-2.29c.39-.39,1.02-.39,1.41,0,.39.39.39,1.02,0,1.41l-2.29,2.29,2.29,2.29c.39.39.39,1.02,0,1.41-.39.39-1.02.39-1.41,0l-2.29-2.29-2.29,2.29c-.39.39-1.02.39-1.41,0-.39-.39-.39-1.02,0-1.41l2.29-2.29-2.29-2.29c-.39-.39-.39-1.02,0-1.41Z"/>
  </g>
</svg>