<?xml version="1.0" encoding="UTF-8"?>
<svg id="_Слой_2" data-name="Слой 2" xmlns="http://www.w3.org/2000/svg" viewBox="0 0 18 21">
  <defs>
    <style>
      .cls-1 {
        fill-rule: evenodd;
      }

      .cls-1, .cls-2 {
        fill: #333;
        stroke-width: 0px;
      }
    </style>
  </defs>
  <g id="_Слой_7" data-name="Слой 7">
    <path class="cls-1" d="m14.66,1.62c.23.01.45.03.67.05,1.54.13,2.66,1.44,2.66,2.94v9.64c0,.8-.32,1.56-.88,2.12-.56.56-1.33.88-2.12.88v-2.25c0-5.92-4.58-10.78-10.38-11.22.32-1.13,1.3-2.01,2.55-2.11.22-.02.45-.04.67-.05.25-.49.64-.9,1.11-1.18C9.41.15,9.95,0,10.5,0h1.5c.55,0,1.09.15,1.56.44.47.29.85.69,1.1,1.18Zm-5.66,1.38c0-.4.16-.78.44-1.06.28-.28.66-.44,1.06-.44h1.5c.4,0,.78.16,1.06.44.28.28.44.66.44,1.06h-4.5Z"/>
    <path class="cls-2" d="m0,7.13c0-1.04.84-1.88,1.88-1.88h.38c.99,0,1.95.4,2.65,1.1s1.1,1.66,1.1,2.65v1.88c0,1.04.84,1.88,1.88,1.88h1.88c.49,0,.98.1,1.44.29.45.19.87.46,1.22.81.35.35.62.76.81,1.22.19.45.29.94.29,1.44v2.62c0,1.03-.84,1.88-1.88,1.88H1.88c-.5,0-.97-.2-1.33-.55-.35-.35-.55-.83-.55-1.33V7.13Z"/>
    <path class="cls-2" d="m7.5,9c0-1.26-.45-2.48-1.28-3.43,1.67.44,3.2,1.32,4.42,2.54,1.22,1.22,2.1,2.75,2.54,4.42-.95-.83-2.17-1.28-3.43-1.28h-1.88c-.1,0-.19-.04-.27-.11-.07-.07-.11-.17-.11-.27v-1.88Z"/>
  </g>
</svg>