<?xml version="1.0" encoding="UTF-8"?>
<svg id="_Слой_2" data-name="Слой 2" xmlns="http://www.w3.org/2000/svg" viewBox="0 0 19.5 18">
  <defs>
    <style>
      .cls-1 {
        fill: #333;
        stroke-width: 0px;
      }
    </style>
  </defs>
  <g id="_Слой_7" data-name="Слой 7">
    <path class="cls-1" d="m9.4,17.91h0s-.02-.01-.02-.01c-.13-.07-.26-.14-.38-.22-1.52-.9-2.94-1.97-4.24-3.17C2.44,12.36,0,9.17,0,5.25,0,2.32,2.46,0,5.44,0c.83,0,1.64.18,2.39.53.75.36,1.4.87,1.92,1.52.52-.64,1.18-1.16,1.92-1.52C12.42.18,13.24,0,14.06,0,17.04,0,19.5,2.32,19.5,5.25c0,3.92-2.44,7.11-4.74,9.26-1.3,1.2-2.72,2.27-4.24,3.17-.13.07-.25.15-.38.22h-.02s0,.02,0,.02h0c-.11.06-.23.09-.35.09s-.24-.03-.35-.09h0Z"/>
  </g>
</svg>