<?xml version="1.0" encoding="UTF-8"?>
<svg id="_Слой_2" data-name="Слой 2" xmlns="http://www.w3.org/2000/svg" viewBox="0 0 512 512">
  <defs>
    <style>
      .cls-1 {
        fill: #fff;
      }

      .cls-1, .cls-2 {
        stroke-width: 0px;
      }

      .cls-2 {
        fill: #292933;
      }
    </style>
  </defs>
  <g id="_Слой_7" data-name="Слой 7">
    <rect class="cls-2" width="512" height="512" rx="128" ry="128"/>
    <path class="cls-1" d="m238.81,133.34c.15.12.32.16.52.13,7.5-1.45,15.07-1.91,22.7-1.39.24.02.37.15.37.39.04,2.54.1,5.03.17,7.47.12,3.87,3.19,6.56,6.78,4.7,3.7-1.91,2.96-6.04,2.8-9.52-.03-.73.25-1.42.85-2.06,1.89-2.03,3.76-4.08,5.62-6.15,10.19-11.34,20.96-21.61,33.29-31.05,4.34-3.32,10.5-6.52,14.21-.28.44.74,1.04,2.65,1.8,5.74,5.53,22.33,9.74,44.91,12.62,67.74.94,7.45,1.62,14.93,2.03,22.43.05.94.07,1.74.04,2.4-.02.41-.23.61-.63.61-5.87,0-11.5,0-16.9.02-4.26.01-8.13,3.23-6.2,7.92,1.26,3.07,4.11,2.84,7.25,2.82,11.79-.06,23.58-.08,35.38-.05,2.29,0,3.95,1.97,4.09,4.16.19,3.02-1.2,4.53-4.16,4.52-12.17-.05-24.35-.05-36.53.02-1.7,0-2.87.13-3.5.36-3.17,1.16-3.68,5.2-1.88,7.86,1.05,1.54,2.75,2.31,5.11,2.32,5.67.02,11.51.02,17.53.01.27,0,.4.13.41.41l.05,7.4c0,.16-.05.31-.14.44-.09.13-.22.22-.37.28-24.15,8.32-48.21,16.87-72.18,25.68-5.8,2.13-9.32,3.85-13.04,7.44-.92.89-1.85.9-2.78.03-3.51-3.26-7.52-5.7-12.04-7.32-21.81-7.79-43.63-15.52-65.49-23.19-2.27-.8-4.6-1.65-7.01-2.57-.22-.09-.41-.24-.55-.44-.13-.2-.21-.44-.2-.68l.06-7.08c0-.23.12-.34.34-.35,5.14-.13,10.27-.11,15.4.05,3.01.1,6.55-.62,7.9-3.7,1.57-3.56-1.37-6.98-5.2-6.98-12.09.03-24.18.05-36.27.05-1.68,0-2.86-.18-3.53-.53-2.44-1.31-2.53-5.21-.63-7.1,1.22-1.22,3.11-1.11,4.76-1.11,12.24-.01,24.49-.02,36.72-.04,2.16,0,3.86-1.41,4.41-3.51,1.25-4.75-3.32-7.26-7.26-7.22-5.53.06-10.96.1-16.29.11-.32,0-.47-.16-.46-.49.9-19.32,3.93-37.83,7.23-56.61,2.39-13.59,5.17-26.58,8.32-38.97,2.13-8.39,8.45-7.54,14.16-3.39,14.5,10.53,27.79,24.06,39.57,37.57.25.29.49.53.74.72Zm-49.85,20.94c11.59-6.76,23.68-12.07,36.27-16.26.62-.21.71-.55.27-1.04-9.27-10.24-19.19-19.81-29.75-28.69-.06-.05-.12-.08-.2-.09-.07-.01-.15,0-.22.02-.07.02-.13.07-.18.12-.05.06-.08.12-.1.2-2.22,11.29-3.68,22.9-5.19,34.31-.52,3.92-.87,7.01-1.04,9.25-.05.67-.23,1.09-.44,1.69-.03.08-.03.16,0,.24s.07.15.13.2c.06.05.14.08.22.09.08,0,.16-.01.24-.05Zm122.54-6.1c3.67,1.81,7.34,3.72,11.01,5.73.68.37.96.17.85-.6-1.62-10.74-3.23-21.65-4.84-32.74-.56-3.91-1.4-8.07-2.08-12.12,0-.05-.03-.11-.06-.15-.03-.04-.07-.08-.12-.11-.05-.03-.1-.04-.16-.04-.05,0-.11,0-.16.03-.31.15-.63.36-.97.64-7.56,6.32-14.79,13.01-21.69,20.05-2.61,2.67-5.08,5.44-7.39,8.31-.05.06-.08.12-.09.2-.01.07,0,.15.01.22.02.07.06.13.11.19.05.05.11.09.18.11,8.67,2.77,17.14,6.2,25.4,10.29Zm-82.29,48.36c0-2.53-.99-4.95-2.76-6.73-1.77-1.79-4.16-2.79-6.66-2.79s-4.89,1-6.66,2.79c-1.77,1.79-2.76,4.21-2.76,6.73s.99,4.95,2.76,6.73c1.77,1.79,4.16,2.79,6.66,2.79s4.9-1,6.66-2.79c1.77-1.79,2.76-4.21,2.76-6.73Zm71.72,0c0-2.53-1-4.96-2.76-6.75-1.77-1.79-4.17-2.79-6.67-2.79s-4.9,1.01-6.67,2.79c-1.77,1.79-2.76,4.22-2.76,6.75s.99,4.96,2.76,6.75c1.77,1.79,4.17,2.79,6.67,2.79s4.9-1.01,6.67-2.79c1.77-1.79,2.76-4.22,2.76-6.75Zm-39.53,25.16c8.63-3.55,5.38-15.09-3.02-16.06-6.31-.73-13.14.85-13.67,8.44-.26,3.75,1.77,6.26,5.03,7.7.54.24.71.64.52,1.21-1.06,3.12-2.97,5.02-6.25,4.76-2.11-.17-4.99-1.06-5.73,1.79-.86,3.3,2.64,6.68,5.58,7.09,4.56.63,8.32-1.05,11.28-5.04.13-.18.29-.2.46-.06.54.43,1.04.9,1.5,1.41,3.9,4.28,11.03,5.64,15.07.66,1.13-1.4,1.4-2.81.8-4.23-1.2-2.87-3.86-1.93-6.1-1.72-3.27.31-5.55-2.41-5.74-5.51-.01-.21.08-.35.27-.44Z"/>
    <path class="cls-1" d="m150.98,195.79c3.08.18,5.71-1.96,5.87-4.79s-2.21-5.26-5.29-5.44c-3.08-.18-5.71,1.96-5.87,4.79-.16,2.82,2.21,5.26,5.29,5.44Z"/>
    <path class="cls-1" d="m360.09,195.79c3.1-.07,5.57-2.43,5.5-5.26-.06-2.83-2.63-5.07-5.73-5-3.1.07-5.57,2.43-5.5,5.26.06,2.84,2.63,5.08,5.73,5Z"/>
    <path class="cls-1" d="m251.95,274.54c2.64,1.08,3,1.3,5.9.25,21.77-7.88,43.59-15.65,65.44-23.3,7.15-2.5,15.38-5.17,23.04-7.84.45-.15.85-.07,1.21.24l6.27,5.39c.45.4.41.73-.12,1-.82.42-1.8.82-2.96,1.23-29.45,10.25-58.86,20.61-88.23,31.08-2.31.82-4.53,1.65-6.66,2.47-.52.2-1.1.19-1.61-.02-2.12-.91-4.39-1.79-6.79-2.64-27.55-9.69-55.09-19.42-82.62-29.18-2.67-.95-5.27-1.98-7.8-3.1-.05-.02-.1-.06-.14-.11-.04-.05-.06-.1-.07-.16,0-.06,0-.12.02-.17.02-.05.06-.1.11-.14l7.01-5.49c.47-.36.98-.44,1.54-.24,6.07,2.2,11.99,4.29,17.76,6.28,20.37,7.04,40.7,14.2,60.98,21.5,2.59.93,5.16,1.92,7.7,2.96Z"/>
    <path class="cls-1" d="m337.97,286.19l2.27,5.44c.11.26.04.45-.23.55-5.54,2.16-10.27,5.47-14.19,9.94-.17.19-.39.33-.63.39-7.95,2.14-16.05,4.46-23.98,6.06-4.03.81-7.91,1.7-12.02,2.16-6.31.71-7.76-8.46-2.97-11.39.67-.41,1.94-.75,3.8-1.01,5.42-.76,11.27-1.96,17.55-3.6,11.56-3.01,19.41-6.02,29.23-9.09.23-.07.47-.05.69.05.21.1.38.28.48.5Z"/>
    <path class="cls-1" d="m243.52,297.35c3.29,1.25,6.49,2.79,9.68,4.24,1.41.64,2.83.65,4.26.04,3.31-1.41,6.65-2.8,10-4.16.67-.28,1.23-.12,1.67.47,1.04,1.38.52,7.57.45,9.49,0,.21-.07.42-.17.6-.1.18-.25.34-.42.45-3.52,2.29-9.48,4.61-12.71,5.59-2.22.68-9.58-3.04-12.78-4.48-.88-.39-1.6-.85-2.17-1.38-.07-.07-.13-.15-.17-.24-.04-.09-.06-.19-.05-.28l.08-8.73c0-.28.07-.55.2-.8.13-.25.32-.46.54-.62.23-.16.49-.26.76-.29.27-.03.55,0,.81.1Z"/>
    <path class="cls-1" d="m330.55,324.35c.74,10.25,9.4,17.96,19.33,17.22,9.93-.74,17.38-9.64,16.64-19.89-.74-10.25-9.4-17.95-19.33-17.22s-17.38,9.64-16.64,19.89Z"/>
    <path class="cls-1" d="m159.74,355.91l.02,11.34c0,.13.04.26.12.37.07.11.18.19.31.24,6.83,2.57,13.77,5.07,20.82,7.51,21.43,7.4,42.8,14.95,64.13,22.63,4.22,1.52,7.73,2.59,10.54,3.21.92.2,2.01.08,3.29-.37,8.11-2.87,16.3-5.93,24.3-8.67,6.68-2.29,13.36-4.61,20.02-6.96,16.17-5.69,32.48-11.43,48.96-17.22.41-.14.62-.44.62-.88l.16-11.37c0-.2.1-.32.29-.36,4.59-1.01,8.93-2.68,13.01-5.01.07-.04.14-.05.22-.03.07.02.13.07.17.13,13.25,23.75,8.13,51.54-13.16,68.46-.72.58-1.56.87-2.52.88-7.14.08-14.29.12-21.43.12-56.11.06-112.22.05-168.34,0-.69,0-1.14-.03-1.73-.47-14.34-10.64-22.62-26.94-22.95-44.91-.18-9.97.81-19.83,2.97-29.57.8-3.58,1.57-7.16,2.33-10.75,1.03-4.91,2.03-8.35,3.01-10.32,6.91-13.98,24.36-18.13,36.05-7.27,6.53,6.07,8.27,16.57,5.06,24.71-4.33,10.98-14.61,15.26-25.91,14.26-.23-.02-.34.09-.34.32Z"/>
    <path class="cls-1" d="m290.39,345.95c-8.38,1.54-9.64-10.84-2.02-11.98,10.19-1.52,20.15-4.03,29.88-7.53.22-.08.35,0,.4.22.69,3.5,1.75,6.87,3.2,10.13.02.06.04.12.04.18,0,.06-.01.12-.03.18-.02.06-.06.11-.1.16-.04.04-.1.08-.15.11-9.9,4.17-20.67,6.58-31.2,8.53Z"/>
    <path class="cls-1" d="m250.18,371.92c2.6,1.23,4.78,2.44,7.09,1.5,3.33-1.35,6.65-2.74,9.96-4.16.49-.21,1.01-.23,1.56-.05.18.05.33.18.43.35,1.09,1.86.46,7.42.32,9.77-.01.22-.08.43-.21.62-.12.18-.29.33-.49.42-4.04,1.94-8.22,3.66-12.55,5.16-2.15.74-11.24-3.76-14-5.14-.78-.39-1.16-.97-1.15-1.73.02-2.79.08-5.41.16-7.86,0-.3.09-.6.24-.86.15-.26.35-.48.61-.65.25-.16.54-.26.84-.29.3-.03.6.02.87.14,2.18.91,4.28,1.84,6.31,2.79Z"/>
    <path class="cls-1" d="m133.25,409.96c4.47,1.64,8.04,5.42,10.22,9.58.14.27.06.41-.25.41-6.78-.02-13.49,0-20.11.05-3.54.02-6.12-.42-6.11-4.54.01-7.45,12.21-6.98,16.25-5.5Z"/>
    <path class="cls-1" d="m391.08,410.1c4.96,1.76,5.64,9.94-.49,9.9-7.14-.05-14.27-.07-21.39-.06-.03,0-.07,0-.09-.02-.03-.02-.05-.04-.07-.07-.02-.03-.03-.06-.03-.09,0-.03,0-.07.02-.1,3.71-9.06,13.01-12.77,22.07-9.56Z"/>
  </g>
</svg>