<?xml version="1.0" encoding="UTF-8"?>
<svg id="_Слой_2" data-name="Слой 2" xmlns="http://www.w3.org/2000/svg" viewBox="0 0 21 21">
  <defs>
    <style>
      .cls-1 {
        fill: #fff;
      }

      .cls-1, .cls-2 {
        stroke-width: 0px;
      }

      .cls-2 {
        fill: #292933;
      }
    </style>
  </defs>
  <g id="_Слой_7" data-name="Слой 7">
    <g>
      <rect class="cls-2" width="21" height="21" rx="5.25" ry="5.25"/>
      <path class="cls-1" d="m9.79,5.47s.01,0,.02,0c.31-.06.62-.08.93-.06.01,0,.02,0,.02.02,0,.1,0,.21,0,.31,0,.16.13.27.28.19.15-.08.12-.25.11-.39,0-.03.01-.06.03-.08.08-.08.15-.17.23-.25.42-.47.86-.89,1.37-1.27.18-.14.43-.27.58-.01.02.03.04.11.07.24.23.92.4,1.84.52,2.78.04.31.07.61.08.92,0,.04,0,.07,0,.1,0,.02,0,.03-.03.03-.24,0-.47,0-.69,0-.17,0-.33.13-.25.32.05.13.17.12.3.12.48,0,.97,0,1.45,0,.09,0,.16.08.17.17,0,.12-.05.19-.17.19-.5,0-1,0-1.5,0-.07,0-.12,0-.14.01-.13.05-.15.21-.08.32.04.06.11.09.21.1.23,0,.47,0,.72,0,.01,0,.02,0,.02.02v.3s0,.01,0,.02c0,0,0,0-.02.01-.99.34-1.98.69-2.96,1.05-.24.09-.38.16-.53.31-.04.04-.08.04-.11,0-.14-.13-.31-.23-.49-.3-.89-.32-1.79-.64-2.69-.95-.09-.03-.19-.07-.29-.11,0,0-.02,0-.02-.02,0,0,0-.02,0-.03v-.29s0-.01.02-.01c.21,0,.42,0,.63,0,.12,0,.27-.03.32-.15.06-.15-.06-.29-.21-.29-.5,0-.99,0-1.49,0-.07,0-.12,0-.14-.02-.1-.05-.1-.21-.03-.29.05-.05.13-.05.2-.05.5,0,1,0,1.51,0,.09,0,.16-.06.18-.14.05-.19-.14-.3-.3-.3-.23,0-.45,0-.67,0-.01,0-.02,0-.02-.02.04-.79.16-1.55.3-2.32.1-.56.21-1.09.34-1.6.09-.34.35-.31.58-.14.59.43,1.14.99,1.62,1.54.01.01.02.02.03.03Zm-2.04.86c.48-.28.97-.49,1.49-.67.03,0,.03-.02.01-.04-.38-.42-.79-.81-1.22-1.18,0,0,0,0,0,0,0,0,0,0,0,0,0,0,0,0,0,0,0,0,0,0,0,0-.09.46-.15.94-.21,1.41-.02.16-.04.29-.04.38,0,.03,0,.04-.02.07,0,0,0,0,0,.01s0,0,0,0c0,0,0,0,0,0,0,0,0,0,0,0Zm5.03-.25c.15.07.3.15.45.24.03.02.04,0,.03-.02-.07-.44-.13-.89-.2-1.34-.02-.16-.06-.33-.09-.5,0,0,0,0,0,0,0,0,0,0,0,0,0,0,0,0,0,0,0,0,0,0,0,0-.01,0-.03.01-.04.03-.31.26-.61.53-.89.82-.11.11-.21.22-.3.34,0,0,0,0,0,0,0,0,0,0,0,0,0,0,0,0,0,0,0,0,0,0,0,0,.36.11.7.25,1.04.42Zm-3.38,1.98c0-.1-.04-.2-.11-.28-.07-.07-.17-.11-.27-.11s-.2.04-.27.11c-.07.07-.11.17-.11.28s.04.2.11.28c.07.07.17.11.27.11s.2-.04.27-.11c.07-.07.11-.17.11-.28Zm2.94,0c0-.1-.04-.2-.11-.28-.07-.07-.17-.11-.27-.11s-.2.04-.27.11c-.07.07-.11.17-.11.28s.04.2.11.28c.07.07.17.11.27.11s.2-.04.27-.11c.07-.07.11-.17.11-.28Zm-1.62,1.03c.35-.15.22-.62-.12-.66-.26-.03-.54.03-.56.35-.01.15.07.26.21.32.02,0,.03.03.02.05-.04.13-.12.21-.26.2-.09,0-.2-.04-.24.07-.04.14.11.27.23.29.19.03.34-.04.46-.21,0,0,.01,0,.02,0,.02.02.04.04.06.06.16.18.45.23.62.03.05-.06.06-.12.03-.17-.05-.12-.16-.08-.25-.07-.13.01-.23-.1-.24-.23,0,0,0-.01.01-.02Z"/>
      <path class="cls-1" d="m6.19,8.03c.13,0,.23-.08.24-.2s-.09-.22-.22-.22c-.13,0-.23.08-.24.2,0,.12.09.22.22.22Z"/>
      <path class="cls-1" d="m14.77,8.03c.13,0,.23-.1.23-.22,0-.12-.11-.21-.24-.21-.13,0-.23.1-.23.22,0,.12.11.21.24.21Z"/>
      <path class="cls-1" d="m10.33,11.26c.11.04.12.05.24.01.89-.32,1.79-.64,2.68-.96.29-.1.63-.21.95-.32.02,0,.03,0,.05,0l.26.22s.02.03,0,.04c-.03.02-.07.03-.12.05-1.21.42-2.41.85-3.62,1.27-.09.03-.19.07-.27.1-.02,0-.04,0-.07,0-.09-.04-.18-.07-.28-.11-1.13-.4-2.26-.8-3.39-1.2-.11-.04-.22-.08-.32-.13,0,0,0,0,0,0,0,0,0,0,0,0,0,0,0,0,0,0,0,0,0,0,0,0l.29-.23s.04-.02.06,0c.25.09.49.18.73.26.84.29,1.67.58,2.5.88.11.04.21.08.32.12Z"/>
      <path class="cls-1" d="m13.86,11.74l.09.22s0,.02,0,.02c-.23.09-.42.22-.58.41,0,0-.02.01-.03.02-.33.09-.66.18-.98.25-.17.03-.32.07-.49.09-.26.03-.32-.35-.12-.47.03-.02.08-.03.16-.04.22-.03.46-.08.72-.15.47-.12.8-.25,1.2-.37,0,0,.02,0,.03,0,0,0,.02.01.02.02Z"/>
      <path class="cls-1" d="m9.99,12.2c.13.05.27.11.4.17.06.03.12.03.17,0,.14-.06.27-.11.41-.17.03-.01.05,0,.07.02.04.06.02.31.02.39,0,0,0,.02,0,.02,0,0-.01.01-.02.02-.14.09-.39.19-.52.23-.09.03-.39-.12-.52-.18-.04-.02-.07-.03-.09-.06,0,0,0,0,0,0,0,0,0,0,0-.01v-.36s0-.02.01-.03c0-.01.01-.02.02-.03,0,0,.02-.01.03-.01.01,0,.02,0,.03,0Z"/>
      <path class="cls-1" d="m13.56,13.3c.03.42.39.74.79.71.41-.03.71-.4.68-.82-.03-.42-.39-.74-.79-.71s-.71.4-.68.82Z"/>
      <path class="cls-1" d="m6.55,14.6v.47s0,.01,0,.02c0,0,0,0,.01,0,.28.11.56.21.85.31.88.3,1.76.61,2.63.93.17.06.32.11.43.13.04,0,.08,0,.13-.02.33-.12.67-.24,1-.36.27-.09.55-.19.82-.29.66-.23,1.33-.47,2.01-.71.02,0,.03-.02.03-.04v-.47s.01-.01.02-.01c.19-.04.37-.11.53-.21,0,0,0,0,0,0,0,0,0,0,0,0,.54.97.33,2.11-.54,2.81-.03.02-.06.04-.1.04-.29,0-.59,0-.88,0-2.3,0-4.6,0-6.9,0-.03,0-.05,0-.07-.02-.59-.44-.93-1.1-.94-1.84,0-.41.03-.81.12-1.21.03-.15.06-.29.1-.44.04-.2.08-.34.12-.42.28-.57,1-.74,1.48-.3.27.25.34.68.21,1.01-.18.45-.6.63-1.06.58,0,0-.01,0-.01.01Z"/>
      <path class="cls-1" d="m11.91,14.19c-.34.06-.4-.44-.08-.49.42-.06.83-.17,1.23-.31,0,0,.01,0,.02,0,.03.14.07.28.13.42,0,0,0,0,0,0,0,0,0,0,0,0,0,0,0,0,0,0,0,0,0,0,0,0-.41.17-.85.27-1.28.35Z"/>
      <path class="cls-1" d="m10.26,15.25c.11.05.2.1.29.06.14-.06.27-.11.41-.17.02,0,.04,0,.06,0,0,0,.01,0,.02.01.04.08.02.3.01.4,0,0,0,.02,0,.03,0,0-.01.01-.02.02-.17.08-.34.15-.51.21-.09.03-.46-.15-.57-.21-.03-.02-.05-.04-.05-.07,0-.11,0-.22,0-.32,0-.01,0-.02,0-.04,0-.01.01-.02.02-.03.01,0,.02-.01.03-.01.01,0,.02,0,.04,0,.09.04.18.08.26.11Z"/>
      <path class="cls-1" d="m5.47,16.81c.18.07.33.22.42.39,0,.01,0,.02-.01.02-.28,0-.55,0-.82,0-.15,0-.25-.02-.25-.19,0-.31.5-.29.67-.23Z"/>
      <path class="cls-1" d="m16.04,16.82c.2.07.23.41-.02.41-.29,0-.59,0-.88,0,0,0,0,0,0,0,0,0,0,0,0,0,0,0,0,0,0,0,0,0,0,0,0,0,.15-.37.53-.52.91-.39Z"/>
    </g>
  </g>
</svg>