<?xml version="1.0" encoding="UTF-8"?>
<svg id="_Слой_2" data-name="Слой 2" xmlns="http://www.w3.org/2000/svg" viewBox="0 0 3 15">
  <defs>
    <style>
      .cls-1 {
        fill: #333;
        fill-rule: evenodd;
        stroke-width: 0px;
      }
    </style>
  </defs>
  <g id="_Слой_7" data-name="Слой 7">
    <path class="cls-1" d="m0,1.5c0-.4.16-.78.44-1.06.28-.28.66-.44,1.06-.44s.78.16,1.06.44c.28.28.44.66.44,1.06s-.16.78-.44,1.06c-.28.28-.66.44-1.06.44s-.78-.16-1.06-.44c-.28-.28-.44-.66-.44-1.06Zm0,6c0-.4.16-.78.44-1.06.28-.28.66-.44,1.06-.44s.78.16,1.06.44c.28.28.44.66.44,1.06s-.16.78-.44,1.06c-.28.28-.66.44-1.06.44s-.78-.16-1.06-.44c-.28-.28-.44-.66-.44-1.06Zm0,6c0-.4.16-.78.44-1.06.28-.28.66-.44,1.06-.44s.78.16,1.06.44c.28.28.44.66.44,1.06s-.16.78-.44,1.06c-.28.28-.66.44-1.06.44s-.78-.16-1.06-.44c-.28-.28-.44-.66-.44-1.06Z"/>
  </g>
</svg>