<?xml version="1.0" encoding="UTF-8"?>
<svg id="_Слой_2" data-name="Слой 2" xmlns="http://www.w3.org/2000/svg" viewBox="0 0 16.5 21">
  <defs>
    <style>
      .cls-1 {
        fill: #333;
        stroke-width: 0px;
      }
    </style>
  </defs>
  <g id="_Слой_7" data-name="Слой 7">
    <path class="cls-1" d="m3.75,4.5c0-1.19.47-2.34,1.32-3.18.84-.84,1.99-1.32,3.18-1.32s2.34.47,3.18,1.32c.84.84,1.32,1.99,1.32,3.18s-.47,2.34-1.32,3.18c-.84.84-1.99,1.32-3.18,1.32s-2.34-.47-3.18-1.32c-.84-.84-1.32-1.99-1.32-3.18ZM0,18.6c.03-2.17.92-4.23,2.46-5.75,1.54-1.52,3.62-2.37,5.79-2.37s4.24.85,5.79,2.37c1.54,1.52,2.43,3.58,2.46,5.75,0,.15-.04.29-.11.41-.08.12-.19.22-.32.28-2.45,1.12-5.12,1.7-7.81,1.7-2.79,0-5.43-.61-7.81-1.7-.13-.06-.24-.16-.32-.28-.08-.12-.12-.27-.11-.41Z"/>
  </g>
</svg>